<svg xmlns="http://www.w3.org/2000/svg" xmlns:xlink="http://www.w3.org/1999/xlink" width="1200" zoomAndPan="magnify" viewBox="0 0 900 299.999988" height="400" preserveAspectRatio="xMidYMid meet" version="1.0"><defs><g/></defs><g fill="#ffffff" fill-opacity="1"><g transform="translate(216.125405, 207.749983)"><g><path d="M 14.0625 0 L 14.0625 -80.78125 L 25.421875 -80.78125 L 25.421875 -68.109375 L 26.953125 -67.75 C 29.640625 -72.488281 33.066406 -76.101562 37.234375 -78.59375 C 41.410156 -81.082031 46.503906 -82.328125 52.515625 -82.328125 C 62.234375 -82.328125 69.273438 -79.847656 73.640625 -74.890625 C 78.015625 -69.929688 80.203125 -62.300781 80.203125 -52 L 80.203125 0 L 68.265625 0 L 68.265625 -51.703125 C 68.265625 -56.585938 67.640625 -60.503906 66.390625 -63.453125 C 65.148438 -66.410156 63.222656 -68.5625 60.609375 -69.90625 C 57.992188 -71.25 54.5625 -71.921875 50.3125 -71.921875 C 43.039062 -71.921875 37.171875 -69.515625 32.703125 -64.703125 C 28.234375 -59.898438 26 -52.148438 26 -41.453125 L 26 0 Z M 14.0625 0 "/></g></g></g><g fill="#000000" fill-opacity="1"><g transform="translate(288.137118, 207.749983)"><g><path d="M 41.890625 1.53125 C 35.398438 1.53125 29.675781 -0.015625 24.71875 -3.109375 C 19.757812 -6.210938 15.875 -10.890625 13.0625 -17.140625 C 10.257812 -23.390625 8.859375 -31.128906 8.859375 -40.359375 C 8.859375 -49.585938 10.320312 -57.335938 13.25 -63.609375 C 16.1875 -69.878906 20.226562 -74.566406 25.375 -77.671875 C 30.53125 -80.773438 36.5 -82.328125 43.28125 -82.328125 C 48.65625 -82.328125 53.488281 -81.3125 57.78125 -79.28125 C 62.082031 -77.257812 65.769531 -73.925781 68.84375 -69.28125 L 70.390625 -69.578125 L 70.390625 -113.234375 L 82.328125 -113.234375 L 82.328125 0 L 70.390625 0 L 70.390625 -11.796875 L 68.84375 -12.078125 C 66.207031 -8.078125 62.628906 -4.804688 58.109375 -2.265625 C 53.597656 0.265625 48.191406 1.53125 41.890625 1.53125 Z M 45.625 -9.15625 C 53.144531 -9.15625 59.148438 -11.726562 63.640625 -16.875 C 68.140625 -22.03125 70.390625 -29.859375 70.390625 -40.359375 C 70.390625 -50.898438 68.140625 -58.742188 63.640625 -63.890625 C 59.148438 -69.046875 53.144531 -71.625 45.625 -71.625 C 37.863281 -71.625 31.882812 -69.109375 27.6875 -64.078125 C 23.488281 -59.054688 21.390625 -51.148438 21.390625 -40.359375 C 21.390625 -19.554688 29.46875 -9.15625 45.625 -9.15625 Z M 45.625 -9.15625 "/></g></g></g><g fill="#000000" fill-opacity="1"><g transform="translate(363.597073, 207.749983)"><g><path d="M 76.984375 -37.640625 L 21.453125 -37.5 C 21.847656 -27.738281 24.226562 -20.570312 28.59375 -16 C 32.96875 -11.4375 38.941406 -9.15625 46.515625 -9.15625 C 52.273438 -9.15625 56.910156 -10.179688 60.421875 -12.234375 C 63.941406 -14.285156 66.703125 -17.507812 68.703125 -21.90625 L 70.234375 -21.90625 L 78 -17.28125 C 75.65625 -11.425781 71.90625 -6.828125 66.75 -3.484375 C 61.601562 -0.140625 54.859375 1.53125 46.515625 1.53125 C 38.703125 1.53125 31.984375 -0.00390625 26.359375 -3.078125 C 20.742188 -6.148438 16.421875 -10.8125 13.390625 -17.0625 C 10.367188 -23.3125 8.859375 -31.078125 8.859375 -40.359375 C 8.859375 -49.535156 10.457031 -57.269531 13.65625 -63.5625 C 16.851562 -69.863281 21.222656 -74.566406 26.765625 -77.671875 C 32.304688 -80.773438 38.644531 -82.328125 45.78125 -82.328125 C 56.125 -82.328125 64.203125 -79.40625 70.015625 -73.5625 C 75.828125 -67.726562 78.757812 -59.078125 78.8125 -47.609375 C 78.8125 -43.117188 78.710938 -40.09375 78.515625 -38.53125 Z M 67.015625 -47.609375 C 66.816406 -56.203125 64.910156 -62.453125 61.296875 -66.359375 C 57.691406 -70.265625 52.519531 -72.21875 45.78125 -72.21875 C 38.695312 -72.21875 33.140625 -70.25 29.109375 -66.3125 C 25.085938 -62.382812 22.632812 -56.148438 21.75 -47.609375 Z M 67.015625 -47.609375 "/></g></g></g><g fill="#000000" fill-opacity="1"><g transform="translate(428.72988, 207.749983)"><g><path d="M 14.0625 0 L 14.0625 -80.78125 L 25.421875 -80.78125 L 25.421875 -68.109375 L 26.953125 -67.75 C 29.640625 -72.488281 33.066406 -76.101562 37.234375 -78.59375 C 41.410156 -81.082031 46.503906 -82.328125 52.515625 -82.328125 C 62.234375 -82.328125 69.273438 -79.847656 73.640625 -74.890625 C 78.015625 -69.929688 80.203125 -62.300781 80.203125 -52 L 80.203125 0 L 68.265625 0 L 68.265625 -51.703125 C 68.265625 -56.585938 67.640625 -60.503906 66.390625 -63.453125 C 65.148438 -66.410156 63.222656 -68.5625 60.609375 -69.90625 C 57.992188 -71.25 54.5625 -71.921875 50.3125 -71.921875 C 43.039062 -71.921875 37.171875 -69.515625 32.703125 -64.703125 C 28.234375 -59.898438 26 -52.148438 26 -41.453125 L 26 0 Z M 14.0625 0 "/></g></g></g><g fill="#000000" fill-opacity="1"><g transform="translate(500.747452, 207.749983)"><g><path d="M 54.640625 -12.8125 L 58.453125 -4.25 C 56.546875 -2.34375 54.039062 -0.90625 50.9375 0.0625 C 47.84375 1.039062 44.488281 1.53125 40.875 1.53125 C 25.4375 1.53125 17.71875 -6.28125 17.71875 -21.90625 L 17.71875 -70.96875 L 3.65625 -70.96875 L 3.65625 -80.78125 L 17.71875 -80.78125 L 17.71875 -97.921875 L 29.65625 -99.90625 L 29.65625 -80.78125 L 55.671875 -80.78125 L 55.671875 -70.96875 L 29.65625 -70.96875 L 29.65625 -23.078125 C 29.65625 -13.796875 33.6875 -9.15625 41.75 -9.15625 C 46.144531 -9.15625 49.925781 -10.375 53.09375 -12.8125 Z M 54.640625 -12.8125 "/></g></g></g><g fill="#000000" fill-opacity="1"><g transform="translate(541.270887, 207.749983)"><g><path d="M 20.0625 -96.390625 C 17.53125 -96.390625 15.46875 -97.179688 13.875 -98.765625 C 12.289062 -100.347656 11.5 -102.363281 11.5 -104.8125 C 11.5 -107.25 12.289062 -109.257812 13.875 -110.84375 C 15.46875 -112.4375 17.53125 -113.234375 20.0625 -113.234375 C 22.601562 -113.234375 24.664062 -112.4375 26.25 -110.84375 C 27.84375 -109.257812 28.640625 -107.25 28.640625 -104.8125 C 28.640625 -102.363281 27.84375 -100.347656 26.25 -98.765625 C 24.664062 -97.179688 22.601562 -96.390625 20.0625 -96.390625 Z M 26 0 L 14.0625 0 L 14.0625 -80.78125 L 26 -80.78125 Z M 26 0 "/></g></g></g><g fill="#000000" fill-opacity="1"><g transform="translate(560.334362, 207.749983)"><g><path d="M 43 -104.65625 C 38.257812 -104.65625 34.679688 -103.4375 32.265625 -101 C 29.847656 -98.5625 28.640625 -95.09375 28.640625 -90.59375 C 28.640625 -87.769531 29.078125 -84.5 29.953125 -80.78125 L 55.671875 -80.78125 L 55.671875 -70.96875 L 29.953125 -70.96875 L 29.953125 0 L 18.015625 0 L 18.015625 -70.96875 L 3.953125 -70.96875 L 3.953125 -80.78125 L 18.015625 -80.78125 C 17.140625 -84.300781 16.703125 -87.671875 16.703125 -90.890625 C 16.703125 -96.117188 17.8125 -100.523438 20.03125 -104.109375 C 22.25 -107.703125 25.335938 -110.375 29.296875 -112.125 C 33.253906 -113.882812 37.820312 -114.765625 43 -114.765625 C 51.050781 -114.765625 57.226562 -113.035156 61.53125 -109.578125 L 56.90625 -101.140625 L 55.375 -100.859375 C 52.195312 -103.390625 48.070312 -104.65625 43 -104.65625 Z M 43 -104.65625 "/></g></g></g><g fill="#000000" fill-opacity="1"><g transform="translate(596.902719, 207.749983)"><g><path d="M 68.40625 -80.78125 L 80.640625 -80.78125 L 44.53125 12.671875 C 42.476562 17.847656 40.179688 22.007812 37.640625 25.15625 C 35.109375 28.3125 32.109375 30.617188 28.640625 32.078125 C 25.171875 33.546875 21.019531 34.28125 16.1875 34.28125 C 13.445312 34.28125 10.894531 34.046875 8.53125 33.578125 C 6.164062 33.117188 4.128906 32.472656 2.421875 31.640625 L 4.609375 22.1875 L 5.9375 21.75 C 7.101562 22.332031 8.566406 22.832031 10.328125 23.25 C 12.085938 23.664062 13.894531 23.875 15.75 23.875 C 19.019531 23.875 21.726562 23.429688 23.875 22.546875 C 26.019531 21.671875 27.863281 20.21875 29.40625 18.1875 C 30.945312 16.164062 32.375 13.375 33.6875 9.8125 L 36.546875 1.90625 L 4.109375 -80.78125 L 17 -80.78125 L 42.40625 -14.875 L 43.796875 -14.875 Z M 68.40625 -80.78125 "/></g></g></g><g fill="#000000" fill-opacity="1"><g transform="translate(216.125405, 207.749983)"><g><path d="M 20.0625 -96.390625 C 17.53125 -96.390625 15.46875 -97.179688 13.875 -98.765625 C 12.289062 -100.347656 11.5 -102.363281 11.5 -104.8125 C 11.5 -107.25 12.289062 -109.257812 13.875 -110.84375 C 15.46875 -112.4375 17.53125 -113.234375 20.0625 -113.234375 C 22.601562 -113.234375 24.664062 -112.4375 26.25 -110.84375 C 27.84375 -109.257812 28.640625 -107.25 28.640625 -104.8125 C 28.640625 -102.363281 27.84375 -100.347656 26.25 -98.765625 C 24.664062 -97.179688 22.601562 -96.390625 20.0625 -96.390625 Z M 26 0 L 14.0625 0 L 14.0625 -80.78125 L 26 -80.78125 Z M 26 0 "/></g></g></g><path stroke-linecap="butt" transform="matrix(0.75, 0, 0, 0.75, 216.125405, 44.999996)" fill="none" stroke-linejoin="miter" d="M 18.749461 217.000023 L 18.749461 109.286472 L 33.884879 109.286472 L 33.884879 126.177099 L 35.936963 126.666682 C 39.520296 120.354181 44.093213 115.536473 49.655714 112.213556 C 55.223423 108.895847 62.009882 107.234389 70.020299 107.234389 C 82.973425 107.234389 92.364051 110.536472 98.192176 117.145848 C 104.020302 123.755223 106.93176 133.927099 106.93176 147.661475 L 106.93176 217.000023 L 91.015092 217.000023 L 91.015092 148.0521 C 91.015092 141.541683 90.186967 136.317724 88.525509 132.380224 C 86.86405 128.442724 84.291133 125.57814 80.811966 123.786473 C 77.327591 121.994807 72.754674 121.098973 67.088007 121.098973 C 57.390089 121.098973 49.561964 124.307307 43.60363 130.718766 C 37.645296 137.135433 34.666129 147.468767 34.666129 161.723976 L 34.666129 217.000023 Z M 18.749461 217.000023 " stroke="#000000" stroke-width="2.25" stroke-opacity="1" stroke-miterlimit="4"/></svg>